<svg width="27" height="27" viewBox="0 0 27 27" fill="none" xmlns="http://www.w3.org/2000/svg">
<g clip-path="url(#clip0_15_3408)">
<path d="M13.5 0.964294C13.1061 0.964294 12.7122 1.066 12.3614 1.2694L3.08014 6.62644C2.36984 7.03546 1.92859 7.80265 1.92859 8.62511V19.3392C1.92859 20.1617 2.36984 20.9288 3.08014 21.3379L12.3614 26.6949C12.7122 26.8983 13.1061 27 13.5 27C13.8939 27 14.2878 26.8983 14.6386 26.6949L23.9199 21.3401C24.6302 20.9288 25.0714 20.1617 25.0714 19.3392V8.62511C25.0714 7.80265 24.6302 7.03546 23.9199 6.62644L14.6386 1.2694C14.2878 1.066 13.8939 0.964294 13.5 0.964294ZM13.5 7.19023C15.5836 7.19023 17.51 8.18293 18.7584 9.87206L16.3434 11.3092C15.618 10.4933 14.587 10.0202 13.5 10.0202C11.3734 10.0202 9.64287 11.7978 9.64287 13.9822C9.64287 16.1665 11.3734 17.9441 13.5 17.9441C14.587 17.9441 15.618 17.471 16.3434 16.6551L18.7584 18.0922C17.51 19.7814 15.5836 20.7741 13.5 20.7741C9.85381 20.7741 6.88777 17.7274 6.88777 13.9822C6.88777 10.2369 9.85381 7.19023 13.5 7.19023ZM19.0102 11.1522H20.1123V12.2842H21.2143V11.1522H22.3163V12.2842H23.4184V13.4162H22.3163V14.5481H23.4184V15.6801H22.3163V16.8121H21.2143V15.6801H20.1123V16.8121H19.0102V15.6801H17.9082V14.5481H19.0102V13.4162H17.9082V12.2842H19.0102V11.1522ZM20.1123 13.4162V14.5481H21.2143V13.4162H20.1123Z" fill="#F5F5F5"/>
</g>
<defs>
<clipPath id="clip0_15_3408">
<rect width="27" height="27" fill="white"/>
</clipPath>
</defs>
</svg>
