<svg width="24" height="24" viewBox="0 0 24 24" fill="none" xmlns="http://www.w3.org/2000/svg">
<path d="M19.5 10C19.5 9.44772 19.0523 9 18.5 9H14.5C13.9477 9 13.5 8.55228 13.5 8V4C13.5 3.44772 13.0523 3 12.5 3H5.5C4.94772 3 4.5 3.44772 4.5 4V20C4.5 20.5523 4.94772 21 5.5 21H18.5C19.0523 21 19.5 20.5523 19.5 20V10ZM16.4648 7.5C17.3557 7.5 17.8019 6.42286 17.1719 5.79289L16.7071 5.32811C16.0771 4.69814 15 5.14431 15 6.03521V6.5C15 7.05228 15.4477 7.5 16 7.5H16.4648ZM3.75 1.5H14.5858C14.851 1.5 15.1054 1.60536 15.2929 1.79289L20.7071 7.20711C20.8946 7.39464 21 7.649 21 7.91421V21.75C21 21.9489 20.921 22.1397 20.7803 22.2803C20.6397 22.421 20.4489 22.5 20.25 22.5H3.75C3.55109 22.5 3.36032 22.421 3.21967 22.2803C3.07902 22.1397 3 21.9489 3 21.75V2.25C3 2.05109 3.07902 1.86032 3.21967 1.71967C3.36032 1.57902 3.55109 1.5 3.75 1.5ZM7.5 12.75C7.5 12.3358 7.83579 12 8.25 12H15.75C16.1642 12 16.5 12.3358 16.5 12.75C16.5 13.1642 16.1642 13.5 15.75 13.5H8.25C7.83579 13.5 7.5 13.1642 7.5 12.75ZM7.5 8.25C7.5 7.83579 7.83579 7.5 8.25 7.5H10.5C10.9142 7.5 11.25 7.83579 11.25 8.25C11.25 8.66421 10.9142 9 10.5 9H8.25C7.83579 9 7.5 8.66421 7.5 8.25ZM7.5 17.25C7.5 16.8358 7.83579 16.5 8.25 16.5H15.75C16.1642 16.5 16.5 16.8358 16.5 17.25C16.5 17.6642 16.1642 18 15.75 18H8.25C7.83579 18 7.5 17.6642 7.5 17.25Z" fill="#F5F5F5"/>
</svg>
