<svg width="24" height="24" viewBox="0 0 24 24" fill="none" xmlns="http://www.w3.org/2000/svg">
<rect width="24" height="24" rx="2" fill="#F5F5F5"/>
<path d="M22 9.30834H19.9433V15.6125H18.7558V9.30834H16.7042V8.275H22V9.30834ZM16.29 15.6125H12.2725V8.275H16.1308V9.30834H13.46V11.3867H15.9208V12.415H13.46V14.585H16.29V15.6125ZM10.7 15.6125H9.40167L5.98333 10.2192C5.89783 10.0849 5.82581 9.94258 5.76833 9.79417H5.73833C5.765 9.95167 5.77833 10.2875 5.77833 10.8025V15.6125H4.63083V8.275H6.01333L9.3175 13.5417C9.45667 13.7592 9.54667 13.91 9.58667 13.9917H9.60667C9.57333 13.7975 9.55667 13.4675 9.55667 13.0042V8.27417H10.7V15.6125ZM3.4475 15.035C3.4475 15.1258 3.42876 15.2157 3.39236 15.2996C3.35596 15.3834 3.3026 15.4596 3.23535 15.5238C3.16809 15.5879 3.08825 15.6388 3.0004 15.6735C2.91254 15.7082 2.81839 15.7259 2.72333 15.7258C2.62827 15.7258 2.53414 15.7079 2.44632 15.6732C2.35851 15.6384 2.27873 15.5874 2.21155 15.5232C2.14437 15.459 2.09111 15.3827 2.05481 15.2988C2.01851 15.2149 1.99989 15.125 2 15.0342C2.00023 14.8511 2.07654 14.6756 2.21217 14.5462C2.34779 14.4168 2.53164 14.3442 2.72333 14.3442C2.81839 14.3441 2.91254 14.3619 3.0004 14.3965C3.08825 14.4312 3.16809 14.4821 3.23535 14.5462C3.3026 14.6104 3.35596 14.6866 3.39236 14.7704C3.42876 14.8543 3.4475 14.9442 3.4475 15.035Z" fill="#242424"/>
</svg>
