<svg width="28" height="28" viewBox="0 0 28 28" fill="none" xmlns="http://www.w3.org/2000/svg">
<path d="M15.7846 0C17.3253 3.56328 10.2567 5.76381 9.60241 8.7343C8.99841 11.4598 13.7976 14.6294 13.7998 14.6294C13.071 13.5007 12.5436 12.5688 11.8127 10.8123C10.5762 7.84184 19.3386 5.15571 15.7846 0ZM20.47 4.93697C20.47 4.93697 14.2812 5.32851 13.9661 9.28771C13.826 11.0508 15.5921 11.9913 15.6446 13.2753C15.684 14.3209 14.5876 15.1937 14.5876 15.1937C14.5876 15.1937 16.5768 14.8197 17.2005 13.2207C17.8899 11.4467 15.8634 10.2349 16.0669 8.81523C16.2639 7.45686 20.47 4.93697 20.47 4.93697ZM21.9713 14.0825C21.3235 14.0541 20.6035 14.2684 19.9514 14.7365C21.2294 14.4631 22.3105 15.244 22.3105 16.1452C22.3105 18.1751 19.3758 20.0935 19.3758 20.0935C19.3758 20.0935 23.9189 19.5751 23.9189 16.2415C23.9189 14.8634 23.0479 14.1328 21.9713 14.0825ZM10.7404 14.0869C10.7404 14.0869 5.07023 14.0103 5.07023 15.6137C5.07023 17.2892 12.4955 17.4074 17.798 16.3749C17.798 16.3749 19.2139 15.4059 19.5903 15.045C16.1151 15.7537 8.18432 15.8477 8.18432 15.2353C8.18432 14.6687 10.7404 14.0869 10.7404 14.0869ZM9.37044 17.2061C8.50164 17.2061 7.20392 17.8776 7.20392 18.5251C7.20392 19.8266 13.7538 20.8306 18.6033 18.9276L16.9248 17.8995C13.6378 18.9517 7.57814 18.6148 9.37044 17.2061ZM10.178 20.1175C8.98528 20.1175 8.21277 20.8525 8.21277 21.395C8.21277 23.0662 15.3316 23.2346 18.1525 21.535L16.3602 20.3953C14.2528 21.2856 8.96121 21.4059 10.178 20.1175ZM6.20601 21.6312C4.26271 21.5919 3 22.4646 3 23.1887C2.99781 27.0385 22.9013 26.8526 22.9013 22.9174C22.9013 22.2656 22.131 21.955 21.8531 21.8062C23.4791 25.5686 5.57794 25.2776 5.57794 23.0574C5.57794 22.5521 6.89098 22.0556 8.11211 22.294L7.07699 21.7056C6.7728 21.6597 6.48175 21.6356 6.20601 21.6312ZM25 24.2211C21.9734 27.0866 14.3053 28.1322 6.59336 26.3626C14.3031 29.5146 24.9606 27.7406 25 24.2211Z" fill="#F5F5F5"/>
</svg>
