<svg width="16" height="16" viewBox="0 0 16 16" fill="none" xmlns="http://www.w3.org/2000/svg">
<path d="M8.00118 7.91016C8.33285 7.91016 8.61641 7.79205 8.85185 7.55582C9.08741 7.3196 9.20518 7.03566 9.20518 6.70399C9.20518 6.37232 9.08707 6.08871 8.85085 5.85316C8.61463 5.61771 8.33063 5.49999 7.99885 5.49999C7.66718 5.49999 7.38363 5.6181 7.14818 5.85432C6.91263 6.09055 6.79485 6.37455 6.79485 6.70632C6.79485 7.03799 6.91296 7.32155 7.14918 7.55699C7.38541 7.79243 7.66941 7.91016 8.00118 7.91016ZM8.00002 13.009C9.30424 11.8414 10.3023 10.7215 10.9942 9.64932C11.6861 8.5771 12.032 7.63799 12.032 6.83199C12.032 5.61666 11.6459 4.61755 10.8737 3.83466C10.1015 3.05177 9.14357 2.66032 8.00002 2.66032C6.85646 2.66032 5.89857 3.05177 5.12635 3.83466C4.35413 4.61755 3.96802 5.61666 3.96802 6.83199C3.96802 7.63799 4.31396 8.5771 5.00585 9.64932C5.69774 10.7215 6.6958 11.8414 8.00002 13.009ZM8.00002 14.3397C6.32224 12.8859 5.06413 11.5329 4.22568 10.2808C3.38724 9.0286 2.96802 7.87899 2.96802 6.83199C2.96802 5.29355 3.46563 4.04805 4.46085 3.09549C5.45618 2.14293 6.63591 1.66666 8.00002 1.66666C9.36413 1.66666 10.5439 2.14293 11.5392 3.09549C12.5344 4.04805 13.032 5.29355 13.032 6.83199C13.032 7.87899 12.6128 9.0286 11.7744 10.2808C10.9359 11.5329 9.6778 12.8859 8.00002 14.3397Z" fill="#B8B8B8"/>
</svg>
