<svg width="24" height="24" viewBox="0 0 24 24" fill="none" xmlns="http://www.w3.org/2000/svg">
<path d="M22.6212 6.93135V17.0616C22.6212 17.7191 22.2675 18.3312 21.699 18.6621L12.9218 23.73C12.6411 23.8929 12.3226 23.9766 11.9975 23.9766C11.6769 23.9766 11.3577 23.8929 11.0769 23.73L8.14622 21.9961C7.70907 21.7521 7.92239 21.6652 8.06691 21.6151C8.65069 21.4125 8.76877 21.3658 9.39197 21.0122C9.45699 20.975 9.54272 20.9895 9.6098 21.0283L11.8613 22.3651C11.9429 22.4111 12.0581 22.4111 12.1332 22.3651L20.9111 17.2986C20.9929 17.2519 21.0453 17.1587 21.0453 17.0617V6.93135C21.0453 6.83211 20.9929 6.73944 20.9091 6.68933L12.1347 1.6273C12.0538 1.57996 11.9458 1.57996 11.8643 1.6273L3.09197 6.69074C3.00675 6.73949 2.95299 6.83507 2.95299 6.93135V17.0616C2.95299 17.1586 3.00671 17.2496 3.09146 17.2956L5.4961 18.6856C6.80058 19.3373 7.59961 18.5691 7.59961 17.797V7.79572C7.59961 7.6543 7.71319 7.54279 7.85457 7.54279H8.96771C9.10688 7.54279 9.22219 7.65425 9.22219 7.79572V17.7971C9.22219 19.5383 8.27363 20.5371 6.62288 20.5371C6.11588 20.5371 5.71599 20.5371 4.60078 19.9881L2.29932 18.6621C1.73058 18.3342 1.37878 17.7191 1.37878 17.0616V6.93135C1.37878 6.27308 1.73058 5.65869 2.29932 5.33127L11.0769 0.25902C11.6324 -0.0550898 12.3711 -0.0550898 12.9218 0.25902L21.699 5.33127C22.2675 5.66005 22.6212 6.27308 22.6212 6.93135ZM15.0549 16.0953C12.4355 16.0953 11.8592 15.4368 11.6661 14.1343C11.6438 13.9952 11.5246 13.8917 11.3819 13.8917H10.1019C9.94341 13.8917 9.81619 14.0184 9.81619 14.1778C9.81619 15.8447 10.7234 17.8327 15.0549 17.8327C18.1911 17.8327 19.9894 16.5981 19.9894 14.4416C19.9894 12.303 18.5444 11.7341 15.503 11.3315C12.429 10.9247 12.1166 10.7152 12.1166 9.99514C12.1166 9.40166 12.3811 8.60854 14.658 8.60854C16.6912 8.60854 17.4407 9.04677 17.7489 10.4168C17.7761 10.5459 17.8935 10.6401 18.0266 10.6401H19.3114C19.3911 10.6401 19.4668 10.6059 19.5209 10.5491C19.5752 10.4891 19.604 10.4109 19.5964 10.329C19.3976 7.96757 17.8286 6.86755 14.658 6.86755C11.8357 6.86755 10.1524 8.05883 10.1524 10.0551C10.1524 12.2216 11.8272 12.8208 14.5352 13.0881C17.7761 13.406 18.0276 13.8794 18.0276 14.5172C18.0276 15.6234 17.1401 16.0953 15.0549 16.0953Z" fill="#F5F5F5"/>
</svg>
