<svg width="24" height="24" viewBox="0 0 24 24" fill="none" xmlns="http://www.w3.org/2000/svg">
<path d="M12.0056 9.43209C12.4177 9.43211 12.8206 9.55126 13.1635 9.77454C13.5064 9.99782 13.7741 10.3152 13.9328 10.6868C14.0915 11.0585 14.1341 11.4676 14.0554 11.8629C13.9766 12.2581 13.7799 12.6217 13.49 12.908C13.2002 13.1942 12.8302 13.3903 12.4265 13.4714C12.0229 13.5526 11.6037 13.5153 11.2217 13.3642C10.8398 13.2131 10.5121 12.9549 10.2799 12.6222C10.0478 12.2896 9.92158 11.8972 9.91717 11.4945C9.9157 11.2251 9.96855 10.9581 10.0727 10.7086C10.1769 10.4592 10.3303 10.2322 10.5242 10.0407C10.7181 9.84916 10.9488 9.69684 11.203 9.59242C11.4571 9.488 11.7299 9.43352 12.0056 9.43209ZM6.83481 20.2245C7.53839 20.6392 9.0684 20.0063 10.8553 18.3694C10.2581 17.7062 9.69522 17.0142 9.16892 16.296C8.26813 16.1974 7.37341 16.0517 6.4886 15.8595C5.91903 18.1948 6.13122 19.7989 6.83481 20.2245ZM7.62773 13.9608L7.30386 13.4042C7.17761 13.7107 7.06948 14.0241 6.97999 14.3427C7.28153 14.4082 7.61657 14.4627 7.96277 14.5173L7.62773 13.9608ZM14.9316 13.1314L15.8362 11.4945L14.9316 9.85768C14.5966 9.27931 14.2392 8.76643 13.9153 8.25354C13.3122 8.22081 12.6757 8.22081 12.0056 8.22081C11.3355 8.22081 10.6989 8.22081 10.0959 8.22081C9.77199 8.73369 9.41461 9.24658 9.07957 9.82494L8.17496 11.4945L9.07957 13.1314C9.41461 13.7098 9.77199 14.2227 10.0959 14.7355C10.6989 14.7355 11.3355 14.7355 12.0056 14.7355C12.6757 14.7355 13.3122 14.7355 13.9153 14.7355C14.2392 14.2227 14.5966 13.7098 14.9316 13.1314ZM12.0056 5.79824C11.7934 6.03832 11.57 6.2893 11.3467 6.58394H12.6645C12.4411 6.2893 12.2178 6.03832 12.0056 5.79824ZM12.0056 17.1908C12.2178 16.9508 12.4411 16.6998 12.6645 16.4051H11.3467C11.57 16.6998 11.7934 16.9508 12.0056 17.1908ZM17.1652 2.76458C16.4728 2.34991 14.9316 2.98283 13.1559 4.6197C13.7531 5.28285 14.3159 5.97484 14.8423 6.69306C15.7422 6.77722 16.6369 6.90836 17.5226 7.08591C18.0921 4.75065 17.8799 3.14652 17.1652 2.72093M16.3834 8.98468L16.7073 9.54121C16.8336 9.2347 16.9417 8.92137 17.0312 8.60274C16.7296 8.53727 16.3946 8.48271 16.0484 8.42814L16.3834 8.98468ZM18.0028 1.34596C19.6445 2.26261 19.8232 4.67426 19.1196 7.48967C21.9563 8.30811 24 9.67216 24 11.5055C24 13.3387 21.9563 14.7028 19.1196 15.5212C19.812 18.3367 19.6333 20.7483 18.0028 21.665C16.3723 22.5816 14.1498 21.534 12.0056 19.537C9.86133 21.534 7.6389 22.5816 5.99721 21.665C4.35551 20.7483 4.18799 18.3912 4.88041 15.5212C2.04374 14.7028 0 13.3387 0 11.5055C0 9.67216 2.04374 8.29719 4.88041 7.47876C4.18799 4.66335 4.36668 2.25169 5.99721 1.33505C7.62773 0.418402 9.86133 1.466 12.0056 3.46298C14.1498 1.466 16.3723 0.418402 18.0028 1.33505M17.6789 11.4945C18.0668 12.2979 18.4098 13.1211 18.7064 13.9608C21.0517 13.2733 22.3695 12.2912 22.3695 11.4945C22.3695 10.6979 21.0181 9.71581 18.7064 9.02833C18.4098 9.86795 18.0668 10.6912 17.6789 11.4945ZM6.33225 11.4945C5.94438 10.6912 5.60139 9.86795 5.30479 9.02833C2.95952 9.71581 1.64169 10.6979 1.64169 11.4945C1.64169 12.2912 2.99302 13.2733 5.30479 13.9608C5.60139 13.1211 5.94438 12.2979 6.33225 11.4945ZM16.3834 13.9608L16.0484 14.5173C16.3946 14.5173 16.7296 14.4082 17.0312 14.3427C16.9417 14.0241 16.8336 13.7107 16.7073 13.4042L16.3834 13.9608ZM13.1224 18.3694C14.8981 20.0063 16.4728 20.6392 17.1317 20.2245C17.7906 19.8098 18.0586 18.2384 17.4891 15.8595C16.6034 16.0371 15.7087 16.1682 14.8087 16.2524C14.2837 16.9855 13.7208 17.6921 13.1224 18.3694ZM7.62773 9.02833L7.96277 8.47179C7.61657 8.47179 7.28153 8.58092 6.97999 8.64639C7.06948 8.96502 7.17761 9.27835 7.30386 9.58486L7.62773 9.02833ZM10.8888 4.6197C9.07957 2.98283 7.53839 2.34991 6.83481 2.76458C6.13122 3.17925 5.91903 4.75065 6.4886 7.12956C7.37423 6.95201 8.26895 6.82087 9.16892 6.73671C9.70488 6.00284 10.2789 5.29624 10.8888 4.6197Z" fill="#F5F5F5"/>
</svg>
