<svg width="18" height="24" viewBox="0 0 18 24" fill="none" xmlns="http://www.w3.org/2000/svg">
<g clip-path="url(#clip0_32_61)">
<path d="M9 22.5C6.48333 22.5 4.35417 22.0479 2.6125 21.1438C0.870833 20.2396 0 19.1361 0 17.8333V6.16667C0 4.88333 0.879167 3.78472 2.6375 2.87083C4.39583 1.95694 6.51667 1.5 9 1.5C11.4833 1.5 13.6042 1.95694 15.3625 2.87083C17.1208 3.78472 18 4.88333 18 6.16667V17.8333C18 19.1361 17.1292 20.2396 15.3875 21.1438C13.6458 22.0479 11.5167 22.5 9 22.5ZM9 8.52917C10.4833 8.52917 11.975 8.28125 13.475 7.78542C14.975 7.28958 15.8167 6.75972 16 6.19583C15.8167 5.63194 14.9792 5.09722 13.4875 4.59167C11.9958 4.08611 10.5 3.83333 9 3.83333C7.48333 3.83333 5.99583 4.08125 4.5375 4.57708C3.07917 5.07292 2.23333 5.6125 2 6.19583C2.23333 6.77917 3.07917 7.31389 4.5375 7.8C5.99583 8.28611 7.48333 8.52917 9 8.52917ZM9 14.3333C9.7 14.3333 10.375 14.2944 11.025 14.2167C11.675 14.1389 12.2958 14.0271 12.8875 13.8813C13.4792 13.7354 14.0375 13.5556 14.5625 13.3417C15.0875 13.1278 15.5667 12.8847 16 12.6125V9.1125C15.5667 9.38472 15.0875 9.62778 14.5625 9.84167C14.0375 10.0556 13.4792 10.2354 12.8875 10.3813C12.2958 10.5271 11.675 10.6389 11.025 10.7167C10.375 10.7944 9.7 10.8333 9 10.8333C8.3 10.8333 7.61667 10.7944 6.95 10.7167C6.28333 10.6389 5.65417 10.5271 5.0625 10.3813C4.47083 10.2354 3.91667 10.0556 3.4 9.84167C2.88333 9.62778 2.41667 9.38472 2 9.1125V12.6125C2.41667 12.8847 2.88333 13.1278 3.4 13.3417C3.91667 13.5556 4.47083 13.7354 5.0625 13.8813C5.65417 14.0271 6.28333 14.1389 6.95 14.2167C7.61667 14.2944 8.3 14.3333 9 14.3333ZM9 20.1667C9.76667 20.1667 10.5458 20.0986 11.3375 19.9625C12.1292 19.8264 12.8583 19.6465 13.525 19.4229C14.1917 19.1993 14.75 18.9465 15.2 18.6646C15.65 18.3826 15.9167 18.0958 16 17.8042V14.9458C15.5667 15.2181 15.0875 15.4611 14.5625 15.675C14.0375 15.8889 13.4792 16.0688 12.8875 16.2146C12.2958 16.3604 11.675 16.4722 11.025 16.55C10.375 16.6278 9.7 16.6667 9 16.6667C8.3 16.6667 7.61667 16.6278 6.95 16.55C6.28333 16.4722 5.65417 16.3604 5.0625 16.2146C4.47083 16.0688 3.91667 15.8889 3.4 15.675C2.88333 15.4611 2.41667 15.2181 2 14.9458V17.8333C2.08333 18.125 2.34583 18.4069 2.7875 18.6792C3.22917 18.9514 3.78333 19.1993 4.45 19.4229C5.11667 19.6465 5.85 19.8264 6.65 19.9625C7.45 20.0986 8.23333 20.1667 9 20.1667Z" fill="#F5F5F5"/>
</g>
<defs>
<clipPath id="clip0_32_61">
<rect width="18" height="22" fill="white" transform="translate(0 1)"/>
</clipPath>
</defs>
</svg>
